<mxfile host="app.diagrams.net" modified="2023-04-26T09:44:49.308Z" agent="Mozilla/5.0 (Windows NT 10.0; Win64; x64) AppleWebKit/537.36 (KHTML, like Gecko) Chrome/112.0.0.0 Safari/537.36 Edg/112.0.1722.58" etag="LDhJGxxpvx3BTt0RxW-Z" version="21.1.6" type="device">
  <diagram name="Page-1" id="Ejs_asqzLssMQNnWNSBa">
    <mxGraphModel dx="1120" dy="444" grid="0" gridSize="10" guides="1" tooltips="1" connect="1" arrows="1" fold="1" page="1" pageScale="1" pageWidth="850" pageHeight="1100" math="0" shadow="0">
      <root>
        <mxCell id="0" />
        <mxCell id="1" parent="0" />
        <mxCell id="iub6iFDOw5q_WdCQZMjt-1" value="User" style="shape=umlActor;verticalLabelPosition=bottom;verticalAlign=top;html=1;outlineConnect=0;" vertex="1" parent="1">
          <mxGeometry x="85" y="174" width="67" height="107" as="geometry" />
        </mxCell>
        <mxCell id="iub6iFDOw5q_WdCQZMjt-2" value="" style="endArrow=classic;html=1;rounded=0;" edge="1" parent="1" target="iub6iFDOw5q_WdCQZMjt-3">
          <mxGeometry width="50" height="50" relative="1" as="geometry">
            <mxPoint x="154" y="209" as="sourcePoint" />
            <mxPoint x="216" y="121" as="targetPoint" />
          </mxGeometry>
        </mxCell>
        <mxCell id="iub6iFDOw5q_WdCQZMjt-3" value="Login" style="ellipse;whiteSpace=wrap;html=1;" vertex="1" parent="1">
          <mxGeometry x="206" y="108" width="95" height="45" as="geometry" />
        </mxCell>
        <mxCell id="iub6iFDOw5q_WdCQZMjt-6" value="" style="endArrow=classic;html=1;rounded=0;" edge="1" parent="1" target="iub6iFDOw5q_WdCQZMjt-7">
          <mxGeometry width="50" height="50" relative="1" as="geometry">
            <mxPoint x="153" y="208" as="sourcePoint" />
            <mxPoint x="234" y="225" as="targetPoint" />
          </mxGeometry>
        </mxCell>
        <mxCell id="iub6iFDOw5q_WdCQZMjt-7" value="Create post" style="ellipse;whiteSpace=wrap;html=1;" vertex="1" parent="1">
          <mxGeometry x="233" y="185" width="94" height="51" as="geometry" />
        </mxCell>
        <mxCell id="iub6iFDOw5q_WdCQZMjt-8" value="" style="endArrow=classic;html=1;rounded=0;exitX=1;exitY=0.3333333333333333;exitDx=0;exitDy=0;exitPerimeter=0;" edge="1" parent="1" source="iub6iFDOw5q_WdCQZMjt-1" target="iub6iFDOw5q_WdCQZMjt-9">
          <mxGeometry width="50" height="50" relative="1" as="geometry">
            <mxPoint x="204" y="253" as="sourcePoint" />
            <mxPoint x="224" y="261" as="targetPoint" />
          </mxGeometry>
        </mxCell>
        <mxCell id="iub6iFDOw5q_WdCQZMjt-9" value="Create Comment" style="ellipse;whiteSpace=wrap;html=1;" vertex="1" parent="1">
          <mxGeometry x="224" y="273" width="98" height="53" as="geometry" />
        </mxCell>
        <mxCell id="iub6iFDOw5q_WdCQZMjt-10" value="" style="endArrow=classic;html=1;rounded=0;" edge="1" parent="1" target="iub6iFDOw5q_WdCQZMjt-11">
          <mxGeometry width="50" height="50" relative="1" as="geometry">
            <mxPoint x="154" y="209" as="sourcePoint" />
            <mxPoint x="220" y="369" as="targetPoint" />
          </mxGeometry>
        </mxCell>
        <mxCell id="iub6iFDOw5q_WdCQZMjt-11" value="profile update" style="ellipse;whiteSpace=wrap;html=1;" vertex="1" parent="1">
          <mxGeometry x="165" y="343" width="101" height="66" as="geometry" />
        </mxCell>
      </root>
    </mxGraphModel>
  </diagram>
</mxfile>
